<svg width="34" height="27" viewBox="0 0 34 27" fill="none" xmlns="http://www.w3.org/2000/svg">
<path d="M21.1751 26.1791C21.1164 26.1791 21.061 26.1517 21.0253 26.1039L13.8104 16.4525C13.7501 16.3713 13.7649 16.2572 13.8439 16.1941C13.9613 16.1013 24.658 7.64375 31.3269 2.32724C24.5559 6.07842 17.6818 9.79889 10.8641 13.4014C10.8284 13.42 10.7879 13.4272 10.7478 13.4206C7.65337 12.9345 0.891141 9.64525 0.60474 9.50535C0.534512 9.47078 0.4928 9.39616 0.501029 9.3188C0.509259 9.24089 0.56469 9.17615 0.640405 9.15695L33.267 0.826654C33.3372 0.808548 33.4118 0.833241 33.4579 0.889753C33.504 0.946265 33.5128 1.02417 33.4815 1.08946L21.3424 26.0743C21.3139 26.133 21.2568 26.1725 21.1921 26.1786C21.1866 26.1791 21.1806 26.1791 21.1751 26.1791ZM14.2181 16.3751L21.1405 25.6354L32.8061 1.62495C26.7072 6.49705 15.6045 15.2783 14.2181 16.3751ZM1.23186 9.39178C2.82736 10.1489 8.14169 12.6075 10.7456 13.042C17.82 9.30345 24.9548 5.43813 31.9722 1.54265L1.23186 9.39178Z" fill="black"/>
<path d="M11.0304 20.7738C11.0145 20.7738 10.998 20.7716 10.9816 20.7672C10.9047 20.7463 10.8493 20.6788 10.8438 20.5993L10.3791 13.5688C10.3725 13.4656 10.4504 13.3767 10.553 13.3701C10.6518 13.3625 10.7451 13.4409 10.7517 13.5441L11.1802 20.0298L13.7232 16.255C13.7808 16.1694 13.8971 16.1469 13.9822 16.2045C14.0678 16.2621 14.0902 16.3779 14.0326 16.4635L11.1846 20.6915C11.15 20.7441 11.0913 20.7738 11.0304 20.7738Z" fill="black"/>
<path d="M11.2471 20.7736C11.1851 20.7736 11.1248 20.7429 11.0891 20.6864C11.0342 20.5991 11.06 20.4839 11.1473 20.429L15.1475 17.9058C15.2342 17.8509 15.35 17.8767 15.4048 17.9639C15.4597 18.0511 15.4339 18.1664 15.3467 18.2212L11.3464 20.7445C11.3157 20.7643 11.2817 20.7736 11.2471 20.7736Z" fill="black"/>
</svg>
